<svg width="366" height="29" viewBox="0 0 366 29" fill="none" xmlns="http://www.w3.org/2000/svg"><path d="M325 22v-.042c0-.022.027-.17.061-.329a94.832 94.832 0 00.229-1.124l.121-.596a177.831 177.831 0 00.232-1.15 250.818 250.818 0 00.345-1.693c.028-.132.064-.31.08-.397.015-.086.066-.34.113-.565l.114-.564c.016-.086.067-.34.114-.564.047-.225.098-.479.114-.565.016-.086.067-.34.115-.564.047-.225.097-.474.112-.554l.092-.46.148-.722.176-.867.134-.669a202.502 202.502 0 01.207-1.014l.124-.606.116-.575a131.47 131.47 0 01.371-1.767c.038-.155.091-.343.118-.418.028-.074.103-.236.168-.36l.118-.224.107-.142c.059-.077.165-.2.234-.273a3.771 3.771 0 01.5-.426 3.85 3.85 0 01.757-.394c.085-.034.249-.09.363-.125.114-.035.328-.087.475-.117.148-.03.381-.068.518-.087l.25-.034L366 4v.042c0 .022-.027.17-.061.329-.034.158-.09.429-.125.601l-.113.554-.116.565-.123.606-.115.565c-.031.155-.082.409-.115.564l-.11.543-.116.575-.125.607-.113.554-.116.575-.124.606a81.732 81.732 0 00-.227 1.118l-.116.575-.111.544c-.034.16-.09.438-.126.616l-.115.565-.113.554-.123.606-.115.564-.117.575-.123.607-.113.554-.114.564-.125.604-.063.29-.074.201c-.041.11-.103.258-.137.326a3.45 3.45 0 01-.313.498 4.768 4.768 0 01-.24.26l-.175.176-.168.12a3.651 3.651 0 01-.221.15c-.03.017-.141.074-.248.128a4.591 4.591 0 01-.336.153 5.526 5.526 0 01-.605.184l-.264.055a6.84 6.84 0 01-.497.08l-.296.035L325 22zm11.479-4.474l.012-.033a.335.335 0 00.013-.095c0-.034.015-.158.033-.275l.093-.6.112-.711c.028-.178.062-.407.075-.507a.72.72 0 01.038-.183c.006 0 .035.044.064.099l.051.098.23.234.283.114.337.044.428-.026.464-.121.124-.057c.068-.032.19-.1.269-.153l.146-.095.135-.137c.074-.075.179-.195.233-.267.054-.072.098-.136.098-.143a2.454 2.454 0 00.206-.396c.048-.114.124-.32.168-.459l.081-.25.041-.218c.023-.12.052-.317.065-.44l.024-.22-.027-.377-.087-.376-.14-.282-.27-.29-.32-.166-.353-.085-.352-.026-.392.045-.321.083-.139.065a2.53 2.53 0 00-.248.134 1.24 1.24 0 00-.136.099.684.684 0 01-.083.064l-.054.036.038-.184c.021-.1.038-.195.039-.21l.001-.026h-.761l-.066.424a185.305 185.305 0 01-.243 1.49l-.114.679a87.796 87.796 0 01-.237 1.327l-.114.627-.127.69a67.149 67.149 0 01-.197 1.009l-.011.047h.891zm1.3-2.407l-.226-.04-.23-.106-.161-.154-.046-.105a1.48 1.48 0 01-.073-.217l-.026-.112.021-.36.053-.283c.03-.155.082-.447.118-.648.035-.201.088-.496.118-.655l.054-.29.119-.1c.065-.054.169-.127.23-.162l.111-.064.29-.09.373-.023.304.065.214.1.18.182.049.097c.026.053.064.157.083.23l.035.135-.022.795-.053.234a4.88 4.88 0 01-.124.44l-.07.204-.087.165c-.047.09-.121.214-.163.273a1.157 1.157 0 01-.297.29l-.076.058-.352.12-.346.021zm4.477.565l.228.002.228-.02a7.73 7.73 0 00.938-.142l.253-.057.013-.094a6.21 6.21 0 01.063-.343l.05-.248-.022-.023-.077.038a3.61 3.61 0 01-.295.11l-.218.072-.456.09h-.726l-.124-.04a1.99 1.99 0 01-.224-.09l-.099-.049-.164-.149-.127-.225-.08-.283-.001-.522.071-.467.624-.029 2.306.015.035-.149c.019-.082.048-.251.065-.376l.03-.228.001-.382-.065-.286-.055-.094a1.272 1.272 0 00-.116-.168.943.943 0 00-.137-.125 2.053 2.053 0 00-.178-.109l-.103-.055-.363-.088-.446-.043-.414.027-.498.096-.155.063a2.028 2.028 0 00-.519.293 1.883 1.883 0 00-.543.683c-.04.08-.093.194-.117.251a4.491 4.491 0 00-.199.627 7.557 7.557 0 00-.082.42l-.033.212.001.623.031.135a1.72 1.72 0 00.169.46c.029.052.092.135.139.185.047.05.132.127.189.17.057.042.158.102.225.133l.122.056.17.041c.094.023.235.05.314.06.078.01.246.02.371.022zm.391-2.945c-.574 0-1.044-.005-1.044-.01s.025-.077.055-.162c.029-.084.082-.209.116-.277l.063-.126.274-.275.135-.065c.074-.035.172-.074.217-.086.046-.012.177-.028.291-.035l.207-.013.318.04.232.108.063.069a.742.742 0 01.092.124l.029.055.039.245-.044.408h-1.043zm6.201 2.945l.228.002.259-.03c.142-.018.332-.046.421-.063.089-.018.234-.053.321-.077.088-.025.167-.052.176-.06.009-.008.034-.103.055-.211.021-.108.047-.253.059-.322a.601.601 0 00.013-.133c-.005-.005-.02 0-.034.013a1.915 1.915 0 01-.226.095l-.2.075-.568.111-.484-.016-.274-.096-.212-.188-.141-.258-.067-.346v-.448l.082-.544.043-.146c.024-.08.05-.175.059-.21.01-.034.048-.133.085-.219.037-.086.104-.22.148-.296l.08-.14.197-.205.209-.13.134-.043c.074-.022.204-.052.29-.066l.155-.024.456.023.539.109.11.041c.06.023.112.041.115.041.003 0 .018-.077.032-.172.015-.095.04-.251.057-.347a.889.889 0 00.022-.183 1.14 1.14 0 00-.18-.03c-.094-.01-.349-.03-.568-.042l-.396-.023-.56.043-.415.088-.133.054a1.957 1.957 0 00-.403.226c-.032.023-.13.112-.218.199l-.158.158-.089.13a3.249 3.249 0 00-.187.334l-.099.203-.076.22c-.041.12-.099.318-.129.438l-.053.22-.039.397v.523l.039.304.125.313.143.226.228.226.241.129.159.044c.087.024.213.052.28.062.066.01.223.02.349.02zm3.689-.016l.353-.091.114-.054a2.27 2.27 0 00.228-.131c.062-.043.159-.123.215-.179.056-.056.139-.151.184-.212a.58.58 0 01.089-.104c.004.003-.007.1-.023.215a3.15 3.15 0 00-.03.34v.13h.761l.023-.596.054-.387a32.852 32.852 0 01.22-1.348c.032-.184.084-.471.115-.638l.056-.303.003-.524-.117-.242-.159-.154-.262-.133-.389-.088-.537-.04-.345.02c-.19.013-.457.036-.594.053l-.249.03-.339.002-.025.12a9.026 9.026 0 01-.083.349 1.77 1.77 0 00-.053.235c.004.004.094-.017.202-.046.107-.029.334-.077.505-.106l.311-.053.56-.024.36.064.241.12.135.202-.002.32-.072.35-1.491.005-.244.068a2.804 2.804 0 00-.436.152 1.15 1.15 0 00-.178.099l-.158.099-.125.125a1.938 1.938 0 00-.194.23 1.932 1.932 0 00-.139.267l-.069.163-.064.365v.383l.061.319.056.104c.031.057.088.14.126.186l.07.082.248.152.142.04c.078.023.196.05.264.06l.122.02.559-.016zm-.186-.568l-.11-.028a1.155 1.155 0 01-.204-.077l-.094-.049-.051-.061a1.04 1.04 0 01-.096-.147l-.044-.086-.017-.402.035-.122a1.98 1.98 0 01.1-.259l.066-.136.251-.252.267-.13.332-.08h1.036l.066.028-.028.164c-.015.09-.051.254-.08.363-.029.109-.081.27-.114.357a1.866 1.866 0 00-.061.17c0 .008-.034.07-.076.141l-.076.129-.124.124a.841.841 0 01-.141.124.388.388 0 00-.093.052l-.077.053-.336.107-.331.017zm6.912.584l.197.002.187-.03c.102-.017.233-.044.29-.06.057-.017.16-.06.228-.095l.124-.064.214-.19.113-.151a1.85 1.85 0 00.125-.183l.012-.032-.011.105a2.992 2.992 0 01-.028.209c-.01.057-.025.168-.032.246l-.014.14h.813V15.3l.062-.534c.034-.293.085-.683.112-.867a26.4 26.4 0 01.095-.585l.096-.554a145.206 145.206 0 01.349-1.934 80.688 80.688 0 01.231-1.202c.028-.132.05-.248.05-.256v-.016h-.887l-.013.13c-.007.073-.041.31-.076.529l-.124.773-.073.446-.011.07-.035-.015a3.037 3.037 0 00-.232-.065l-.197-.05-.539-.042-.456.043-.414.105-.394.194-.29.217-.126.135a3.259 3.259 0 00-.221.274l-.096.138-.112.237c-.062.13-.138.302-.168.383-.03.08-.083.259-.118.396l-.064.25-.062.65.047.522.027.095c.016.051.048.143.072.204l.044.111.159.218.183.15.124.063a1.687 1.687 0 00.514.151c.071.01.217.018.325.02zm.197-.585l-.105-.02a1.166 1.166 0 01-.207-.062l-.101-.044-.17-.14-.126-.244-.058-.272.005-.543.067-.481.052-.168c.029-.092.052-.178.052-.192 0-.014.029-.09.063-.168.034-.078.092-.198.127-.267a2.21 2.21 0 01.149-.239 1.391 1.391 0 01.372-.362l.093-.058.326-.113h.684l.197.055c.108.03.223.065.256.078l.058.023-.011.057-.055.308-.104.586c-.034.184-.085.461-.115.616a8.698 8.698 0 01-.094.44l-.071.265c-.017.06-.056.163-.087.23a2.031 2.031 0 01-.122.215 1.231 1.231 0 01-.135.16c-.038.035-.12.1-.183.141l-.114.076-.33.106-.313.017zm-29.846.483l.036-.225.086-.528.114-.69.117-.7.104-.595a2.65 2.65 0 01.061-.292l.012-.012h2.708l.031.03-.024.121a72.94 72.94 0 00-.085.455l-.126.69a91.513 91.513 0 00-.237 1.286 8.5 8.5 0 00-.073.434v.026h1.011l.023-.13c.012-.073.032-.202.044-.288.011-.087.04-.27.063-.408l.103-.606a218.98 218.98 0 00.239-1.432c.029-.167.079-.45.113-.627l.124-.67.115-.637.116-.648c.036-.195.08-.424.1-.507l.035-.152H333.4l-.014.1a27.02 27.02 0 01-.147.862 50.24 50.24 0 00-.208 1.267l-.035.233-1.503.03-.63-.014a28.478 28.478 0 01-.633-.02 1.502 1.502 0 01.026-.18c.017-.097.048-.266.07-.375l.093-.481c.029-.155.062-.348.073-.428.011-.081.034-.215.052-.298.017-.084.05-.26.073-.39.023-.132.047-.254.054-.272l.013-.034h-1.016l-.032.183a144.058 144.058 0 00-.137.852l-.115.721-.114.722c-.035.218-.091.557-.126.752l-.113.617-.114.606c-.036.19-.089.458-.117.596-.028.138-.059.298-.069.355-.009.058-.042.224-.071.369-.029.145-.053.28-.053.298v.034h1.007zm5.518 0l.012-.033a.389.389 0 00.013-.106c0-.04.028-.249.062-.464l.126-.777.114-.69c.029-.167.079-.444.112-.617l.112-.595c.029-.156.086-.45.127-.657.04-.205.078-.382.085-.392l.011-.018-.902.01-.037.273c-.021.15-.066.445-.101.658l-.116.722c-.029.183-.08.48-.113.658l-.113.606a81.76 81.76 0 01-.272 1.375l-.012.047h.892zm10.424 0l.013-.19c.008-.103.033-.312.056-.464l.106-.674c.035-.218.1-.582.145-.808.044-.226.094-.45.111-.499a.579.579 0 00.031-.117c0-.016.033-.101.074-.19.041-.09.117-.226.169-.304l.094-.141.253-.236.312-.15.477.002.117.035c.064.02.123.036.129.036.007 0 .013-.023.013-.05 0-.027.023-.165.052-.306a8.13 8.13 0 00.051-.27.537.537 0 00-.15-.059 1.887 1.887 0 00-.254-.059l-.103-.013-.135.024a1.703 1.703 0 00-.245.065 1.337 1.337 0 00-.222.113 1.545 1.545 0 00-.421.419l-.137.188-.029.042.018-.084c.01-.046.037-.197.061-.335a4.74 4.74 0 01.055-.287l.011-.037h-.791v.05c0 .029-.023.196-.052.372l-.104.655-.114.71c-.034.208-.086.504-.115.66a191.112 191.112 0 01-.239 1.254l-.093.467a2.243 2.243 0 00-.029.162v.019h.885zm10.515 0v-.28l.052-.346c.029-.19.076-.492.106-.67l.08-.502c.016-.098.056-.31.09-.47.034-.161.077-.335.095-.387a.65.65 0 00.033-.12c0-.015.039-.11.086-.21l.085-.182.226-.302.123-.093c.068-.052.177-.12.242-.152l.119-.058.518.004.204.066.035-.022.001-.067c0-.036.022-.173.049-.303l.048-.237-.054-.021a3.236 3.236 0 00-.158-.055l-.104-.032h-.373l-.304.108-.228.14-.297.313-.08.121a.558.558 0 01-.086.116 3.956 3.956 0 01.053-.31c.033-.167.06-.325.06-.35l.001-.048h-.767v.014l-.042.298a128.26 128.26 0 01-.228 1.434c-.035.207-.086.503-.115.659l-.113.606-.123.637-.1.507-.039.194h.905zm-20.383-5.101l.2-.069.177-.181.094-.241.003-.356-.083-.139-.144-.09h-.312l-.212.096-.123.133-.097.23-.018.358.09.178.174.08h.251z" fill="#B4141C"/><path d="M262.795 6.197a5.663 5.663 0 011.788-.286c2.726 0 5.002 1.92 5.523 4.473l3.865-.783c-.887-4.336-4.753-7.6-9.388-7.6a9.635 9.635 0 00-3.039.487l1.251 3.71z" fill="#FBC707"/><path d="M258.234 18.617l2.614-2.93a5.558 5.558 0 01-.002-8.371l-2.614-2.93a9.443 9.443 0 00.002 14.23z" fill="#38A7E4"/><path d="M270.105 12.623c-.523 2.55-2.797 4.467-5.522 4.467-.626 0-1.228-.1-1.79-.288l-1.252 3.71a9.64 9.64 0 003.042.488c4.631 0 8.496-3.259 9.387-7.592l-3.865-.785z" fill="#EF3120"/><path d="M285.074 14.655c-.002.001-.003.002-.003.004l-.111-.075c-.316.51-.809.923-1.433 1.19-1.186.511-2.285.38-3.074-.306l-.072.109-.002-.002-1.347 1.996c.335.23.693.426 1.07.581 1.487.612 3.008.584 4.506-.062 1.084-.465 1.934-1.176 2.516-2.076l-2.05-1.36zm-4.202-4.925c-1.251.533-1.897 1.698-1.764 3.064l5.304-2.264c-.911-1.064-2.099-1.415-3.54-.8zm-3.521 6.08a6.752 6.752 0 01-.403-.768 5.596 5.596 0 01-.125-4.265c.569-1.536 1.655-2.71 3.056-3.31 1.765-.752 3.715-.603 5.405.391 1.073.61 1.834 1.554 2.413 2.887.073.17.137.353.201.508l-10.547 4.558zM291.585 4.528v11.099l1.74.699-.989 2.287-1.92-.792a2.177 2.177 0 01-.948-.789c-.211-.326-.371-.773-.371-1.375V4.527h2.488z" fill="#231F20"/><path d="M296.093 12.799a3.132 3.132 0 011.088-2.368l-1.786-1.974a5.766 5.766 0 00-.004 8.685l1.782-1.976a3.133 3.133 0 01-1.08-2.367zM299.265 15.949c-.352 0-.689-.059-1.006-.163l-.852 2.515c.582.194 1.207.299 1.856.3 2.826.002 5.188-1.986 5.735-4.63l-2.622-.53a3.168 3.168 0 01-3.111 2.508zM299.273 7.003c-.648 0-1.271.104-1.855.296l.846 2.516a3.23 3.23 0 011.007-.161 3.166 3.166 0 013.107 2.522l2.622-.528c-.539-2.647-2.897-4.644-5.727-4.645zM203.55 27.846v-1.854a1.103 1.103 0 00-.704-1.103 1.101 1.101 0 00-.458-.071 1.143 1.143 0 00-1.039.525 1.08 1.08 0 00-.976-.525.977.977 0 00-.865.439v-.365h-.643v2.954h.649v-1.625a.697.697 0 01.177-.563.685.685 0 01.546-.222c.426 0 .643.278.643.779v1.644h.649V26.22a.695.695 0 01.723-.785c.439 0 .649.278.649.779v1.644l.649-.013zm9.601-2.954h-1.057v-.896h-.649v.896h-.587v.587h.6v1.36c0 .686.265 1.094 1.026 1.094.284 0 .562-.078.803-.229l-.185-.55c-.173.103-.368.16-.569.167-.309 0-.426-.198-.426-.495V25.48h1.05l-.006-.587zm5.482-.074a.877.877 0 00-.778.432v-.358h-.637v2.954h.643V26.19c0-.488.21-.76.618-.76a1.05 1.05 0 01.402.074l.197-.618a1.368 1.368 0 00-.457-.08l.012.012zm-8.288.309a2.21 2.21 0 00-1.205-.31c-.748 0-1.236.36-1.236.946 0 .482.358.78 1.02.872l.309.043c.352.05.519.142.519.31 0 .228-.235.358-.674.358a1.575 1.575 0 01-.983-.31l-.309.501c.375.262.823.396 1.28.383.853 0 1.347-.401 1.347-.964 0-.562-.389-.79-1.032-.883l-.309-.044c-.278-.037-.501-.093-.501-.29 0-.198.211-.346.563-.346.325.003.645.09.927.253l.284-.52zm17.216-.31a.872.872 0 00-.779.433v-.358h-.636v2.954h.643V26.19c0-.488.21-.76.618-.76.137-.002.274.023.401.074l.198-.618a1.372 1.372 0 00-.457-.08l.012.012zm-8.282 1.546a1.502 1.502 0 00.447 1.12 1.486 1.486 0 001.129.425c.386.02.765-.106 1.063-.352l-.309-.52c-.222.17-.493.263-.772.266a.947.947 0 01-.873-.945.948.948 0 01.873-.946c.279.003.55.096.772.266l.309-.52a1.545 1.545 0 00-1.063-.352 1.489 1.489 0 00-1.471.938c-.077.193-.112.4-.105.608v.012zm6.02 0v-1.471h-.643v.358a1.12 1.12 0 00-.927-.432 1.542 1.542 0 00-1.545 1.545 1.544 1.544 0 001.545 1.545 1.123 1.123 0 00.927-.433v.359h.643v-1.471zm-2.392 0a.891.891 0 011.096-.817.893.893 0 01-.2 1.763.888.888 0 01-.896-.946zm-7.756-1.545a1.547 1.547 0 00-1.524 1.567 1.546 1.546 0 001.567 1.523c.444.023.882-.12 1.227-.402l-.309-.476a1.408 1.408 0 01-.859.31.82.82 0 01-.884-.724h2.194v-.247c0-.927-.575-1.545-1.403-1.545l-.009-.006zm0 .575a.733.733 0 01.747.716h-1.545a.759.759 0 01.785-.716h.013zm16.103.976v-2.664h-.618v1.546a1.12 1.12 0 00-.927-.433 1.546 1.546 0 000 3.09 1.125 1.125 0 00.927-.433v.359h.618v-1.465zm1.072 1.048c.04 0 .08.007.118.021a.295.295 0 01.184.269.282.282 0 01-.088.207.32.32 0 01-.214.087.309.309 0 01-.278-.18.3.3 0 010-.228.304.304 0 01.288-.176h-.01zm0 .522a.218.218 0 00.221-.223.227.227 0 00-.06-.154.22.22 0 00-.161-.068.235.235 0 00-.164.068.232.232 0 00-.06.154c0 .058.022.113.06.155a.236.236 0 00.174.068h-.01zm.019-.368a.122.122 0 01.08.025c.01.008.017.018.022.03a.073.073 0 01.006.035c0 .01-.001.02-.005.03a.07.07 0 01-.017.026.107.107 0 01-.065.027l.09.102h-.071l-.083-.102h-.028v.102h-.059v-.272l.13-.003zm-.068.053v.074h.068a.063.063 0 00.037 0 .033.033 0 000-.028.033.033 0 000-.028.065.065 0 00-.037 0l-.068-.018zm-3.399-1.255a.89.89 0 011.096-.817.895.895 0 01.289 1.614.892.892 0 01-.846.079.89.89 0 01-.539-.876zm-21.703 0v-1.477h-.643v.358a1.116 1.116 0 00-.927-.432 1.546 1.546 0 000 3.09 1.119 1.119 0 00.927-.433v.359h.643v-1.465zm-2.392 0a.89.89 0 011.096-.817.89.89 0 01.674.712.894.894 0 01-1.232.983.885.885 0 01-.544-.878h.006z" fill="#231F20"/><path d="M219.866 2.38h-9.734v17.494h9.734V2.38z" fill="#FF5F00"/><path d="M210.75 11.129a11.106 11.106 0 014.249-8.75 11.124 11.124 0 00-16.304 14.65 11.123 11.123 0 0016.304 2.845 11.104 11.104 0 01-4.249-8.745z" fill="#EB001B"/><path d="M233 11.128a11.121 11.121 0 01-6.263 10.006 11.127 11.127 0 01-11.738-1.26 11.117 11.117 0 004.251-8.748 11.13 11.13 0 00-4.251-8.747A11.124 11.124 0 01233 11.125v.003zM231.937 18.02v-.36h.145v-.073h-.368v.074h.158v.358h.065zm.714 0v-.433h-.111l-.13.308-.13-.308h-.099v.432h.08v-.324l.121.28h.083l.121-.28v.327l.065-.003z" fill="#F79E1B"/><path d="M155.304 28.42V26.57a1.094 1.094 0 00-1.155-1.168 1.138 1.138 0 00-1.035.524 1.084 1.084 0 00-.974-.523.972.972 0 00-.862.437v-.364h-.641v2.943h.647v-1.63a.68.68 0 01.175-.562.681.681 0 01.546-.22c.425 0 .64.277.64.776v1.636h.647v-1.63a.691.691 0 01.425-.732.692.692 0 01.296-.05c.438 0 .647.277.647.776v1.636h.644zm3.605-1.47v-1.47h-.647v.358a1.116 1.116 0 00-.925-.431 1.54 1.54 0 000 3.08 1.116 1.116 0 00.925-.431v.357h.641l.006-1.463zm-2.382 0a.887.887 0 01.584-.784.89.89 0 11.31 1.727.88.88 0 01-.9-.943h.006zm16.073-1.54c.211 0 .42.039.616.117.187.075.358.186.502.326.143.14.256.306.333.49.161.395.161.837 0 1.232-.077.184-.19.35-.333.49-.144.141-.315.252-.502.327a1.744 1.744 0 01-1.263 0 1.523 1.523 0 01-.499-.327 1.516 1.516 0 01-.33-.49 1.632 1.632 0 010-1.232c.077-.183.189-.35.33-.49.143-.14.313-.251.499-.326.203-.085.421-.127.641-.127l.006.01zm0 .616a.956.956 0 00-.367.068.872.872 0 00-.293.194.915.915 0 00-.194.308 1.07 1.07 0 000 .764.9.9 0 00.194.308.87.87 0 00.293.194 1 1 0 001.038-.194.87.87 0 00.194-.308 1.06 1.06 0 000-.764.868.868 0 00-.194-.308.88.88 0 00-.308-.194.954.954 0 00-.369-.087l.006.019zm-10.21.924c0-.924-.573-1.54-1.396-1.54a1.542 1.542 0 00-1.518 1.562 1.537 1.537 0 001.562 1.518c.438.015.867-.131 1.204-.412l-.308-.475a1.401 1.401 0 01-.856.308.815.815 0 01-.882-.72h2.185c.009-.078.009-.155.009-.241zm-2.19-.259a.755.755 0 01.773-.711.725.725 0 01.521.203.74.74 0 01.224.511l-1.518-.003zm4.886-.462a1.898 1.898 0 00-.925-.252c-.351 0-.56.129-.56.345 0 .215.222.252.499.29l.308.042c.641.093 1.029.364 1.029.881 0 .518-.493.962-1.34.962-.454.012-.9-.122-1.273-.382l.308-.5c.283.21.628.319.98.309.438 0 .672-.13.672-.358 0-.166-.167-.259-.518-.308l-.308-.043c-.659-.092-1.017-.388-1.017-.869 0-.585.481-.942 1.233-.942.421-.015.836.092 1.198.308l-.286.517zm3.081-.166h-1.045v1.328c0 .308.105.493.425.493.2-.007.395-.064.567-.167l.185.549c-.24.15-.518.229-.801.228-.758 0-1.023-.407-1.023-1.091v-1.34h-.598v-.586h.598v-.893h.647v.893h1.045v.586zm2.215-.66c.155.001.309.028.456.08l-.198.617a1.038 1.038 0 00-.4-.074c-.419 0-.616.27-.616.758v1.648h-.641V25.49h.635v.357a.866.866 0 01.776-.431l-.012-.012zm4.43 2.588a.307.307 0 01.212.084.28.28 0 01.065.32.304.304 0 01-.16.154.292.292 0 01-.282-.024.303.303 0 01-.112-.13.28.28 0 010-.228.295.295 0 01.261-.176h.016zm0 .521a.22.22 0 00.16-.068.23.23 0 00.062-.203.23.23 0 00-.133-.166.218.218 0 00-.089-.019.238.238 0 00-.163.068.226.226 0 000 .308.223.223 0 00.163.068v.012zm.018-.367a.123.123 0 01.08.025c.01.008.017.018.022.029a.073.073 0 01.006.036.062.062 0 01-.005.03.081.081 0 01-.016.025.109.109 0 01-.065.028l.089.102h-.071l-.083-.102h-.028v.102h-.058v-.284l.129.01zm-.067.053v.074h.067a.065.065 0 00.037 0 .034.034 0 00.004-.014.034.034 0 00-.004-.014.034.034 0 00.004-.014.034.034 0 00-.004-.014.065.065 0 00-.037 0l-.067-.018z" fill="#000"/><path d="M167.241 3.031h-9.704v17.44h9.704V3.031z" fill="#7673C0"/><path d="M158.154 11.753a11.069 11.069 0 014.236-8.722 11.09 11.09 0 100 17.44 11.076 11.076 0 01-4.236-8.719z" fill="#EB001B"/><path d="M179.276 18.623v-.345h.145v-.074h-.367v.074h.145v.357l.077-.012zm.712 0v-.431h-.111l-.129.308-.13-.308h-.114v.431h.08v-.324l.121.28h.083l.12-.28v.327l.08-.003zM180.332 11.753a11.087 11.087 0 01-6.243 9.973 11.094 11.094 0 01-11.699-1.255 11.095 11.095 0 003.122-13.568 11.095 11.095 0 00-3.122-3.872 11.09 11.09 0 0117.945 8.719l-.003.003z" fill="#00A1DF"/><path d="M92.364 5.29L85.69 20.727h-4.363L78.04 8.396c-.199-.752-.378-1.042-.976-1.35-.996-.521-2.63-1.004-4.064-1.313l.1-.444h7.012c.897 0 1.694.58 1.893 1.564l1.733 8.935L88.04 5.289h4.323zm5.897 0l-3.407 15.438h-4.123L94.137 5.29h4.124zm11.176 10.382c.02-4.072-5.817-4.304-5.777-6.118.02-.56.558-1.138 1.753-1.293.598-.077 2.211-.135 4.064.695l.717-3.28c-.996-.348-2.271-.676-3.845-.676-4.084 0-6.933 2.104-6.972 5.095-.02 2.219 2.052 3.454 3.605 4.207 1.614.752 2.152 1.235 2.132 1.91-.02 1.042-1.275 1.486-2.47 1.506-2.072.038-3.267-.54-4.224-.985l-.757 3.377c.957.425 2.75.792 4.582.811 4.343.039 7.172-2.046 7.192-5.25zm10.758 5.037H124L120.673 5.27h-3.506c-.797 0-1.455.444-1.753 1.139l-6.176 14.3h4.323l.857-2.297h5.279l.498 2.297zm-4.602-5.462l2.171-5.79 1.256 5.79h-3.427zm-12.073 9.707h-1.673v1.506h1.873v.463h-2.431v-4.188h2.351v.463h-1.773v1.332h1.673v.424h-.02zm1.076-2.45h.558v4.419h-.558v-4.42zm1.992 3.01c.02.733.498 1.042 1.056 1.042.399 0 .658-.077.857-.154l.099.386a2.747 2.747 0 01-1.036.193c-.956 0-1.534-.618-1.534-1.525 0-.907.558-1.62 1.455-1.62 1.016 0 1.275.848 1.275 1.408 0 .116 0 .193-.02.25h-2.152v.02zm1.654-.386c0-.347-.14-.888-.777-.888-.578 0-.817.502-.857.888h1.634zm3.606 1.698c-.14.078-.478.174-.897.174-.936 0-1.554-.617-1.554-1.544 0-.926.658-1.602 1.674-1.602.338 0 .637.078.777.155l-.12.424c-.139-.077-.339-.135-.657-.135-.717 0-1.096.521-1.096 1.139 0 .695.458 1.12 1.076 1.12.319 0 .538-.078.697-.136l.1.405zm1.593-3.628v.714h.817v.425h-.817v1.62c0 .368.1.58.419.58.159 0 .239-.02.319-.039l.019.425a1.462 1.462 0 01-.498.077.886.886 0 01-.617-.232c-.16-.173-.219-.443-.219-.79v-1.641h-.478v-.425h.478v-.56l.577-.154zm1.594 1.66c0-.348 0-.656-.02-.946h.498l.02.599h.02c.14-.406.478-.657.857-.657.06 0 .099 0 .159.02v.52c-.06-.019-.119-.019-.199-.019-.399 0-.677.29-.757.695-.02.077-.02.174-.02.251v1.602h-.558v-2.065zm5.001.54c0 1.12-.797 1.602-1.554 1.602-.837 0-1.494-.598-1.494-1.544 0-1.003.677-1.582 1.533-1.582.917-.02 1.515.598 1.515 1.524zm-2.451.02c0 .656.379 1.157.936 1.157.538 0 .937-.482.937-1.177 0-.502-.259-1.158-.937-1.158-.657.02-.936.618-.936 1.178zm3.307-.695c0-.309 0-.56-.02-.81h.498l.04.501h.02c.159-.27.518-.56 1.036-.56.438 0 1.096.251 1.096 1.274v1.795h-.558v-1.737c0-.483-.179-.888-.717-.888a.809.809 0 00-.757.56c-.02.077-.04.154-.04.25v1.815h-.558v-2.2h-.04z" fill="#1A1F71"/><g clip-path="url(#clip0)" fill-rule="evenodd" clip-rule="evenodd"><path d="M18.316 20.768l2.629-15.507h4.217l-2.629 15.507h-4.217zM37.816 5.638A11.664 11.664 0 0034.03 5c-4.189 0-7.107 2.087-7.107 5.101-.028 2.232 2.08 3.479 3.698 4.203 1.647.783 2.196 1.247 2.167 1.913 0 1.044-1.3 1.508-2.513 1.508-1.676 0-2.572-.232-3.958-.812l-.549-.26-.578 3.477c.982.435 2.802.812 4.68.841 4.42 0 7.28-2.087 7.338-5.304.029-1.74-1.098-3.102-3.525-4.203-1.473-.696-2.368-1.189-2.368-1.913 0-.667.78-1.334 2.397-1.334a7.383 7.383 0 013.15.61l.375.173.578-3.362zM48.729 5h-3.264c-1.012 0-1.763.29-2.225 1.275L37 20.507h4.42s.722-1.913.896-2.319h5.402c.115.522.52 2.32.52 2.32h3.87L48.729 5zm-5.2 9.971c.347-.87 1.675-4.319 1.675-4.319-.028.03.347-.898.55-1.478l.288 1.333s.81 3.71.983 4.464h-3.496zM14.79 5.29l-4.13 10.55-.434-2.144c-.78-2.493-3.177-5.16-5.835-6.493l3.784 13.565h4.45L19.24 5.29h-4.45z" fill="#005098"/><path d="M6.847 5.261H.029L0 5.609c5.258 1.275 8.782 4.377 10.227 8.116l-1.503-7.13c-.23-.986-.953-1.305-1.877-1.334z" fill="#F7A600"/></g><defs><clipPath id="clip0"><path fill="#fff" d="M0 5h52v16H0z"/></clipPath></defs></svg>